<?xml version="1.0" encoding="utf-8"?>
<!-- Generator: Adobe Illustrator 16.0.0, SVG Export Plug-In . SVG Version: 6.00 Build 0)  -->
<!DOCTYPE svg PUBLIC "-//W3C//DTD SVG 1.1//EN" "http://www.w3.org/Graphics/SVG/1.1/DTD/svg11.dtd">
<svg version="1.1" id="Layer_1" xmlns="http://www.w3.org/2000/svg" xmlns:xlink="http://www.w3.org/1999/xlink" x="0px" y="0px"
	 width="100px" height="100px" viewBox="0 0 100 100" enable-background="new 0 0 100 100" xml:space="preserve">
<path id="background" fill-rule="evenodd" clip-rule="evenodd" fill="#FE5F1B" d="M80.846,85.748
	c-2.915-0.656-4.266,0.706-4.554,4.096c-0.344,4.06-1.197,4.488-5.02,2.776c-3.25-1.454-4.931-0.635-6.223,2.651
	c-1.515,3.852-2.295,4.005-5.62,1.389c-2.606-2.052-4.434-1.964-6.459,0.798c-2.455,3.348-3.457,3.38-5.855,0.151
	c-2.106-2.836-3.992-3.087-6.752-0.879c-3.176,2.54-4.069,2.278-5.555-1.645c-1.202-3.174-2.928-3.863-5.973-2.555
	c-4.085,1.755-4.521,1.563-5.038-2.581c-0.425-3.415-1.971-4.824-5.377-4.187c-3.399,0.636-5.115-0.688-4.286-4.203
	c0.854-3.617-0.862-5.113-4.091-5.348c-3.433-0.25-4.472-1.667-2.826-4.803c1.72-3.277,0.767-5.302-2.788-6.404
	c-2.911-0.901-3.797-2.666-1.462-5.177c2.608-2.805,2.358-5.114-0.974-7.199c-2.802-1.753-2.551-3.745,0.134-5.414
	c3.155-1.959,3.504-4.185,0.974-6.904c-2.363-2.541-1.868-4.384,1.437-5.414c3.551-1.106,4.346-3.235,2.605-6.481
	c-1.521-2.834-0.644-4.63,2.59-4.743c3.681-0.127,5.171-1.634,4.377-5.361c-0.691-3.251,0.708-4.754,4.038-4.01
	c3.699,0.827,5.338-0.921,5.56-4.35c0.202-3.134,1.547-4.462,4.494-2.85c3.692,2.021,5.644,0.91,6.824-2.942
	c0.853-2.78,2.713-3.397,4.998-1.274c2.749,2.551,5.121,2.616,7.243-0.8c1.689-2.721,3.611-2.82,5.393-0.069
	c2.093,3.234,4.377,3.572,7.246,0.896c2.093-1.954,3.961-1.914,4.962,1.196c1.155,3.579,3.073,5.133,6.847,2.969
	c2.854-1.636,4.574-0.372,4.607,2.719c0.042,4.064,2.02,5.208,5.704,4.489C85.234,13.66,86.37,15,85.66,18.171
	c-0.797,3.564,0.598,5.313,4.376,5.442c2.745,0.094,4.663,1.191,2.907,4.48c-1.827,3.422-1.1,5.844,2.831,6.974
	c3.15,0.906,3.201,2.777,1.309,4.937c-2.459,2.81-2.563,5.141,0.844,7.271c2.708,1.694,2.807,3.72,0.046,5.419
	c-3.174,1.953-3.489,4.001-1.146,6.935c2.416,3.024,2.14,4.073-1.402,5.407c-3.207,1.208-4.471,2.89-2.712,6.118
	c1.916,3.517,0.502,4.906-3.138,5.162c-3.083,0.218-4.497,1.702-4.034,5.135C86.129,85.819,85.885,85.852,80.846,85.748z"/>
<g id="house">
	<path fill-rule="evenodd" clip-rule="evenodd" fill="#FEFDFD" d="M54.292,54.583c0.151-1.416,1.5-2.19,1.255-3.618
		c-2.139-0.475-3.997-0.718-3.715,2.448c0.065,0.732-0.467,1.092-1.18,1.093c-0.778,0.001-1.127-0.498-1.067-1.189
		c0.297-3.424-2.013-2.565-3.908-2.451c-0.519,1.465,1.086,2.101,1.286,3.708c-5.191,0-10.312-0.001-15.433,0.001
		c-0.974,0.001-1.663-0.243-1.691-1.429c-0.029-1.188,0.331-1.899,1.641-1.899c2.352-0.001,4.704-0.002,7.055-0.069
		c0.716-0.021,1.639-0.156,1.598-1.119c-0.044-1.024-1.012-0.889-1.708-0.898c-2.35-0.032-4.7-0.012-7.389-0.012
		c1.528-2.982,3.835-3.64,6.714-3.509c1.041,0.047,2.869,0.857,3.045-0.927c0.14-1.423-1.829-0.767-3.014-1.793
		c3.579-2.882,7.078-5.734,10.62-8.531c1.257-0.993,2.545-0.711,3.73,0.248c3.355,2.714,6.711,5.429,10.03,8.116
		c-0.387,1.438-2.941,0.426-2.389,2.214c0.4,1.291,1.954,0.773,2.953,0.686c2.712-0.235,4.714,0.692,6.424,3.489
		c-2.156,0-3.957-0.106-5.736,0.041c-1.066,0.089-3.017-0.788-2.963,0.99c0.042,1.422,1.987,0.987,3.151,1.036
		c1.854,0.079,3.713,0.028,5.57,0.025c1.174-0.002,2.189,0.025,2.209,1.696c0.02,1.735-1.065,1.652-2.208,1.652
		C64.234,54.583,59.293,54.583,54.292,54.583z M45.607,48.39c4.227,0.229,4.227,0.229,3.365-3.47
		C47.315,45.394,46.25,46.439,45.607,48.39z M55.395,48.194c-0.327-1.882-1.529-2.716-3.236-3.147
		C51.329,48.117,52.232,49.264,55.395,48.194z"/>
	<path fill-rule="evenodd" clip-rule="evenodd" fill="#FEFDFD" d="M50.074,31.876c-2.031-0.015-3.44,1.236-4.889,2.409
		c-6.734,5.451-13.459,10.915-20.215,16.339c-1.078,0.866-2.342,2.636-3.722,0.961c-1.363-1.654,0.546-2.584,1.641-3.475
		c7.202-5.858,14.398-11.725,21.653-17.516c3.773-3.013,7.127-3.132,10.805-0.218c7.47,5.92,14.839,11.966,22.217,18.001
		c0.972,0.794,2.693,1.648,1.309,3.221c-1.288,1.463-2.394,0.088-3.43-0.751c-6.927-5.608-13.863-11.204-20.784-16.818
		C53.301,32.925,51.958,31.829,50.074,31.876z"/>
	<path fill-rule="evenodd" clip-rule="evenodd" fill="#FEFDFD" d="M54.281,74.701c0,1.485,0.022,2.97-0.004,4.455
		c-0.098,5.627,0.843,4.672-4.897,4.971c-2.981,0.154-4.214-0.558-3.979-3.8c0.295-4.062,0.131-8.164,0.044-12.244
		c-0.038-1.774,0.313-2.638,2.396-2.738c6.445-0.308,6.44-0.407,6.439,6.017C54.281,72.473,54.281,73.587,54.281,74.701z"/>
	<path fill-rule="evenodd" clip-rule="evenodd" fill="#FEFDFD" d="M50.166,61.002c6.175,0,12.351-0.023,18.525,0.022
		c1.092,0.009,2.611-0.54,2.672,1.526c0.063,2.131-1.484,1.571-2.577,1.575c-5.521,0.015-11.017-0.134-16.536-0.685
		c-6.725-0.67-13.45,1.306-20.226,0.684c-1.055-0.097-2.689,0.731-2.833-1.329c-0.159-2.279,1.578-1.768,2.82-1.776
		C38.062,60.981,44.114,61.002,50.166,61.002z"/>
	<path fill-rule="evenodd" clip-rule="evenodd" fill="#FEFDFD" d="M50.197,56.617c6.806,0,13.612-0.02,20.417,0.022
		c0.988,0.006,2.58-0.434,2.456,1.292c-0.095,1.323-1.496,0.996-2.423,0.997c-13.736,0.018-27.47,0.021-41.205-0.006
		c-0.996-0.002-2.577,0.434-2.442-1.323c0.107-1.389,1.52-0.956,2.412-0.961C36.339,56.6,43.268,56.616,50.197,56.617z"/>
	<path fill-rule="evenodd" clip-rule="evenodd" fill="#FEFDFD" d="M72.052,41.104c-4.468-1.812-6.345-5.158-7.257-9.239
		c-0.286-1.278,0.079-2.21,1.378-2.61c1.939-0.597,3.898-0.635,5.846-0.022c1.134,0.357,1.816,1.459,1.296,2.28
		C71.436,34.482,72.82,37.801,72.052,41.104z"/>
	<path fill-rule="evenodd" clip-rule="evenodd" fill="#FEFDFD" d="M56.628,16.468c3.812-0.233,6.686-0.484,7.537,3.987
		c0.318,1.664,3.296,0.579,5.049,0.69c2.336,0.149,4.177,0.653,4.266,3.451c0.027,0.879,0.052,1.917-1.044,2.062
		c-0.952,0.127-1.035-0.833-1.169-1.55c-0.428-2.28-2.255-1.431-3.565-1.504c-2.874-0.162-6.276,0.74-6.458-3.891
		c-0.028-0.715-0.689-0.919-1.363-0.916c-0.862,0.005-1.763,0.149-2.58-0.046c-1.819-0.437-5.124,1.297-5.151-1.337
		C52.126,15.347,55.526,17.035,56.628,16.468z"/>
	<path fill-rule="evenodd" clip-rule="evenodd" fill="#FEFDFD" d="M63.927,84.059c-1.853,0-3.706-0.048-5.556,0.015
		c-1.548,0.052-1.8-0.79-1.812-2.091c-0.015-1.436,0.823-1.571,1.906-1.567c3.705,0.01,7.41,0.024,11.114-0.006
		c1.184-0.01,1.813,0.315,1.809,1.666c-0.004,1.384-0.425,2.06-1.904,2.002C67.633,84.007,65.779,84.061,63.927,84.059z"/>
	<path fill-rule="evenodd" clip-rule="evenodd" fill="#FEFDFD" d="M36.357,80.415c1.731,0,3.464,0.014,5.195-0.006
		c1.086-0.013,1.972,0.123,1.971,1.538c0,1.275-0.267,2.15-1.829,2.128c-3.587-0.05-7.175-0.033-10.762-0.007
		c-1.248,0.009-1.737-0.543-1.791-1.778c-0.065-1.512,0.676-1.924,2.019-1.887C32.892,80.452,34.625,80.415,36.357,80.415z"/>
	<path fill-rule="evenodd" clip-rule="evenodd" fill="#FEFDFD" d="M36.542,70.855c1.719,0,3.439,0.031,5.158-0.012
		c1.163-0.028,1.895,0.275,1.829,1.626c-0.049,1.005-0.39,1.652-1.496,1.652c-3.807-0.002-7.614,0.004-11.421-0.019
		c-1.078-0.007-1.415-0.658-1.46-1.684c-0.062-1.427,0.769-1.583,1.864-1.569C32.856,70.872,34.699,70.856,36.542,70.855z"/>
	<path fill-rule="evenodd" clip-rule="evenodd" fill="#FEFDFD" d="M64.243,70.856c1.723-0.001,3.446,0,5.169-0.002
		c1.021-0.001,1.952-0.019,1.963,1.469c0.008,1.302-0.549,1.741-1.759,1.733c-3.815-0.024-7.631-0.013-11.447-0.013
		c-1.017,0-1.549-0.404-1.599-1.518c-0.06-1.334,0.563-1.708,1.765-1.68C60.303,70.891,62.273,70.858,64.243,70.856z"/>
	<path fill-rule="evenodd" clip-rule="evenodd" fill="#FEFDFD" d="M35.345,76.059c2.097,0,4.193-0.011,6.291,0.005
		c0.849,0.008,1.846-0.107,1.822,1.2c-0.018,0.971-0.72,1.179-1.521,1.18c-4.563,0-9.127,0.008-13.691-0.029
		c-0.587-0.005-1.292-0.15-1.317-0.963c-0.028-0.902,0.556-1.347,1.386-1.358c2.343-0.035,4.687-0.011,7.03-0.011
		C35.345,76.074,35.345,76.067,35.345,76.059z"/>
	<path fill-rule="evenodd" clip-rule="evenodd" fill="#FEFDFD" d="M34.689,68.569c-2.104-0.001-4.207,0.012-6.311-0.009
		c-0.619-0.006-1.325-0.08-1.418-0.859c-0.118-0.989,0.619-1.253,1.405-1.257c4.454-0.023,8.908-0.021,13.363-0.012
		c0.741,0.002,1.583,0.014,1.589,1.06c0.007,1.051-0.831,1.068-1.576,1.073C39.391,68.582,37.04,68.572,34.689,68.569z"/>
	<path fill-rule="evenodd" clip-rule="evenodd" fill="#FEFDFD" d="M64.664,68.569c-2.217,0-4.435,0.009-6.652-0.005
		c-0.805-0.004-1.474-0.211-1.361-1.242c0.09-0.832,0.744-0.883,1.344-0.884c4.559-0.012,9.117-0.011,13.675,0.019
		c0.757,0.006,1.539,0.281,1.438,1.215c-0.077,0.695-0.779,0.877-1.422,0.881c-2.34,0.012-4.68,0.005-7.021,0.005
		C64.664,68.562,64.664,68.565,64.664,68.569z"/>
	<path fill-rule="evenodd" clip-rule="evenodd" fill="#FEFDFD" d="M64.707,78.443c-2.214-0.001-4.428,0.013-6.641-0.009
		c-0.785-0.008-1.461-0.213-1.459-1.216c0.001-1.043,0.729-1.145,1.493-1.146c4.427-0.009,8.855-0.013,13.283,0.007
		c0.905,0.005,1.812,0.228,1.682,1.395c-0.105,0.948-0.99,0.954-1.715,0.962C69.134,78.459,66.92,78.444,64.707,78.443z"/>
</g>
</svg>
